<?xml version="1.0" standalone="no"?>
<!DOCTYPE svg PUBLIC "-//W3C//DTD SVG 20010904//EN"
 "http://www.w3.org/TR/2001/REC-SVG-20010904/DTD/svg10.dtd">
<svg version="1.0" xmlns="http://www.w3.org/2000/svg"
 width="1200.000000pt" height="1200.000000pt" viewBox="0 0 1200.000000 1200.000000"
 preserveAspectRatio="xMidYMid meet">

<g transform="translate(0.000000,1200.000000) scale(0.100000,-0.100000)"
fill="#000000" stroke="none">
<path d="M7545 10603 c-538 -75 -1016 -659 -1229 -1499 -53 -210 -90 -461
-131 -904 -14 -151 -29 -293 -33 -315 l-8 -39 -374 -176 c-570 -267 -824 -402
-1090 -580 -561 -376 -884 -794 -1015 -1317 -46 -181 -65 -342 -65 -547 0
-268 29 -450 110 -696 151 -458 428 -829 810 -1085 207 -138 602 -292 828
-321 29 -4 54 -10 56 -13 4 -5 -23 -205 -96 -731 -3 -21 -11 -11 -48 59 -185
344 -554 563 -950 564 -88 0 -133 -5 -193 -22 -308 -85 -553 -325 -633 -622
-25 -91 -23 -269 4 -370 70 -260 269 -481 565 -625 184 -90 378 -134 587 -134
273 0 477 74 630 230 71 72 121 157 168 286 47 126 56 178 147 769 47 308 88
572 91 586 5 24 11 27 92 39 268 40 535 146 752 298 101 72 278 254 348 361
115 172 196 369 243 591 30 141 33 447 6 584 -97 480 -390 828 -822 975 -49
17 -109 35 -133 41 -36 9 -41 14 -37 33 4 17 70 452 133 872 l7 50 159 83
c953 494 1791 1264 2050 1882 139 331 167 711 75 1025 -88 299 -289 526 -547
619 -131 47 -324 67 -457 49z m56 -913 c233 -72 315 -278 221 -557 -136 -402
-452 -727 -960 -986 -163 -83 -370 -173 -379 -164 -9 10 55 316 109 516 89
332 201 602 339 811 73 110 239 283 314 326 124 72 242 90 356 54z m-1607
-2877 c-2 -10 -29 -178 -59 -373 -30 -195 -57 -369 -60 -386 l-5 -31 -84 -7
c-158 -12 -378 -83 -539 -175 -167 -96 -316 -232 -410 -373 -69 -104 -101
-175 -132 -293 -86 -325 -45 -613 123 -864 124 -187 343 -362 369 -295 3 9 1
24 -6 33 -28 38 -72 142 -92 216 -33 118 -33 342 0 435 45 130 92 212 166 286
105 106 218 152 386 157 79 2 84 1 82 -18 -10 -77 -264 -1676 -271 -1700 -7
-28 -10 -29 -52 -26 -220 15 -519 123 -730 264 -342 227 -560 540 -646 927
-27 118 -25 395 4 527 93 429 361 814 778 1119 149 108 345 224 559 330 194
96 577 262 607 263 10 1 15 -5 12 -16z m153 -1798 c357 -189 495 -500 397
-890 -21 -83 -103 -247 -162 -325 -103 -136 -247 -253 -399 -326 -56 -26 -227
-84 -249 -84 -2 0 -4 11 -4 23 0 27 248 1645 255 1665 6 15 42 1 162 -63z"/>
<path d="M1200 8192 c-50 -25 -76 -81 -61 -132 6 -21 25 -50 42 -64 l31 -26
2005 2 2005 3 29 33 c52 58 34 153 -35 186 -31 15 -202 16 -2008 16 -1858 0
-1975 -1 -2008 -18z"/>
<path d="M8683 8190 c-36 -21 -50 -43 -53 -80 -5 -54 1 -73 34 -106 l34 -34
1016 0 c928 0 1019 1 1042 16 52 35 69 110 37 165 -37 62 16 59 -1080 59 -971
0 -999 -1 -1030 -20z"/>
<path d="M1184 6991 c-30 -18 -54 -64 -54 -103 0 -32 29 -78 63 -98 31 -19 59
-20 1140 -20 1006 0 1112 2 1143 16 42 20 64 59 64 115 0 33 -6 47 -34 75
l-34 34 -1128 0 c-1092 0 -1130 -1 -1160 -19z"/>
<path d="M7678 6994 c-85 -45 -73 -172 18 -210 51 -21 2989 -21 3039 0 38 16
75 68 75 104 0 38 -30 92 -61 107 -43 23 -3030 22 -3071 -1z"/>
<path d="M1200 5782 c-96 -47 -84 -193 18 -222 24 -6 345 -10 919 -10 973 0
946 -2 978 61 19 37 19 92 -1 130 -31 61 2 59 -981 59 -835 0 -900 -1 -933
-18z"/>
<path d="M8183 5780 c-42 -25 -53 -48 -53 -108 0 -41 5 -55 28 -80 16 -17 43
-33 63 -37 19 -3 593 -4 1277 -3 l1244 3 34 37 c27 30 34 46 34 78 0 55 -22
94 -64 114 -31 15 -148 16 -1283 16 -1218 0 -1249 -1 -1280 -20z"/>
<path d="M1205 4590 c-89 -36 -96 -159 -12 -210 31 -19 56 -20 867 -20 940 0
886 -4 924 74 17 36 18 43 5 80 -9 25 -27 49 -48 63 l-34 23 -841 -1 c-463 0
-850 -4 -861 -9z"/>
<path d="M8300 4582 c-22 -10 -42 -32 -54 -56 -17 -36 -18 -43 -5 -79 8 -22
27 -50 42 -61 28 -21 29 -21 1223 -24 1316 -3 1244 -6 1284 60 35 58 21 115
-39 155 l-34 23 -1191 0 c-1114 0 -1193 -1 -1226 -18z"/>
<path d="M8197 3390 l-609 -5 -29 -33 c-56 -62 -29 -170 48 -192 27 -8 482
-10 1586 -8 l1549 3 34 37 c26 29 34 46 34 76 0 51 -35 103 -80 119 -37 12
-1251 14 -2533 3z"/>
<path d="M1181 3365 c-63 -53 -62 -142 2 -187 l32 -23 1036 -3 c1120 -3 1092
-4 1133 51 24 33 27 93 6 132 -31 58 23 55 -1124 55 l-1054 0 -31 -25z"/>
</g>
</svg>
